<svg xmlns="http://www.w3.org/2000/svg" viewBox="0 0 7479.39 1402.10" width="7479.39" height="1402.10">
  <g fill="#0A0A0A">
    <g transform="translate(0 0.000) scale(4.917757) translate(9.397 9.397)"><g transform="rotate(45 50 50)"><rect x="8" y="8" width="36" height="36" rx="4"/><rect x="56" y="8" width="36" height="36" rx="4"/><rect x="8" y="56" width="36" height="36" rx="4"/><rect x="56" y="56" width="36" height="36" rx="4"/></g></g>
    <g transform="translate(571.386 1372.100) scale(1 -1)"><path transform="translate(0 0)" d="M1437 0V656Q1437 767 1382.0 829.5Q1327 892 1233 892Q1175 892 1129.0 865.5Q1083 839 1056.0 787.5Q1029 736 1029 665L922 728Q921 840 972.5 925.5Q1024 1011 1112.0 1059.0Q1200 1107 1308 1107Q1487 1107 1582.5 999.5Q1678 892 1678 717V0ZM138 0V1080H351V745H381V0ZM789 0V653Q789 766 734.0 829.0Q679 892 584 892Q492 892 436.5 829.0Q381 766 381 665L273 737Q273 842 325.0 926.0Q377 1010 465.5 1058.5Q554 1107 664 1107Q785 1107 866.5 1055.5Q948 1004 988.5 915.5Q1029 827 1029 716V0Z"/><path transform="translate(1678 0)" d="M442 -30Q325 -30 244.0 14.5Q163 59 121.5 133.0Q80 207 80 296Q80 374 106.0 436.5Q132 499 186.0 544.5Q240 590 326 619Q391 640 478.5 657.0Q566 674 668.5 688.5Q771 703 883 720L797 671Q798 783 747.0 836.0Q696 889 575 889Q502 889 434.0 855.0Q366 821 339 738L119 807Q159 944 271.5 1027.0Q384 1110 575 1110Q719 1110 828.5 1063.0Q938 1016 991 909Q1020 852 1026.0 792.5Q1032 733 1032 663V0H821V234L856 196Q783 79 685.5 24.5Q588 -30 442 -30ZM490 162Q572 162 630.0 191.0Q688 220 722.5 262.0Q757 304 769 341Q788 387 790.5 446.5Q793 506 793 543L867 521Q758 504 680.0 491.0Q602 478 546.0 466.5Q490 455 447 441Q405 426 376.0 406.0Q347 386 331.5 360.0Q316 334 316 299Q316 259 336.0 228.5Q356 198 394.5 180.0Q433 162 490 162Z"/><path transform="translate(2710 0)" d="M887 0V520Q887 571 880.0 633.0Q873 695 847.5 752.5Q822 810 771.5 847.0Q721 884 635 884Q589 884 544.0 869.0Q499 854 462.5 817.5Q426 781 404.0 717.5Q382 654 382 555L239 616Q239 754 292.5 866.0Q346 978 450.0 1044.5Q554 1111 706 1111Q826 1111 904.0 1071.0Q982 1031 1028.0 969.0Q1074 907 1096.0 837.0Q1118 767 1124.5 704.5Q1131 642 1131 603V0ZM138 0V1080H353V745H382V0Z"/><path transform="translate(3841 0)" d="M40 0V33L612 869H98V1080H987V1046L417 211H963V0Z"/><path transform="translate(4788 0)" d="M442 -30Q325 -30 244.0 14.5Q163 59 121.5 133.0Q80 207 80 296Q80 374 106.0 436.5Q132 499 186.0 544.5Q240 590 326 619Q391 640 478.5 657.0Q566 674 668.5 688.5Q771 703 883 720L797 671Q798 783 747.0 836.0Q696 889 575 889Q502 889 434.0 855.0Q366 821 339 738L119 807Q159 944 271.5 1027.0Q384 1110 575 1110Q719 1110 828.5 1063.0Q938 1016 991 909Q1020 852 1026.0 792.5Q1032 733 1032 663V0H821V234L856 196Q783 79 685.5 24.5Q588 -30 442 -30ZM490 162Q572 162 630.0 191.0Q688 220 722.5 262.0Q757 304 769 341Q788 387 790.5 446.5Q793 506 793 543L867 521Q758 504 680.0 491.0Q602 478 546.0 466.5Q490 455 447 441Q405 426 376.0 406.0Q347 386 331.5 360.0Q316 334 316 299Q316 259 336.0 228.5Q356 198 394.5 180.0Q433 162 490 162Z"/><path transform="translate(5820 0)" d="M20 0 415 546 28 1080H312L555 735L794 1080H1078L691 546L1088 0H804L555 357L304 0Z"/></g>
  </g>
</svg>

